<?xml version="1.0" encoding="UTF-8" standalone="no"?>
<!-- Created with Inkscape (http://www.inkscape.org/) -->

<svg
   width="120mm"
   height="120mm"
   viewBox="0 0 120 120"
   version="1.1"
   id="svg1"
   inkscape:version="1.4.2 (ebf0e940, 2025-05-08)"
   sodipodi:docname="vellaris.svg"
   xmlns:inkscape="http://www.inkscape.org/namespaces/inkscape"
   xmlns:sodipodi="http://sodipodi.sourceforge.net/DTD/sodipodi-0.dtd"
   xmlns="http://www.w3.org/2000/svg"
   xmlns:svg="http://www.w3.org/2000/svg">
  <sodipodi:namedview
     id="namedview1"
     pagecolor="#ffffff"
     bordercolor="#000000"
     borderopacity="0.25"
     inkscape:showpageshadow="2"
     inkscape:pageopacity="0.0"
     inkscape:pagecheckerboard="0"
     inkscape:deskcolor="#d1d1d1"
     inkscape:document-units="mm"
     inkscape:zoom="0.77771465"
     inkscape:cx="396.67505"
     inkscape:cy="532.97183"
     inkscape:window-width="2560"
     inkscape:window-height="1022"
     inkscape:window-x="0"
     inkscape:window-y="30"
     inkscape:window-maximized="1"
     inkscape:current-layer="layer1" />
  <defs
     id="defs1" />
  <g
     inkscape:label="Layer 1"
     inkscape:groupmode="layer"
     id="layer1">
    <path
       style="fill:#000000;stroke-width:0.264583"
       d="m 59.810602,115.62429 c -0.0629,-0.1819 -0.27241,-0.97571 -0.46569,-1.76402 -0.38503,-1.57042 -0.4443,-1.62121 -2.62579,-2.24991 -3.28128,-0.94566 -6.2162,-4.05365 -7.25579,-7.68367 -0.54447,-1.90115 -0.29097,-1.71118 -3.28019,-2.45825 -0.50932,-0.12729 -0.92604,-0.34293 -0.92604,-0.4792 0,-0.13627 0.85015,-0.46965 1.88922,-0.74083 l 1.88922,-0.493079 0.17319,-1.09443 c 0.0953,-0.60193 0.53319,-1.87759 0.97321,-2.83479 l 0.80003,-1.74036 -5.21279,-13.20858 c -5.10139,-12.92634 -5.75516,-14.66382 -5.51762,-14.66382 0.0643,0 0.70489,0.38696 1.42355,0.85991 0.99549,0.65512 1.41253,1.14342 1.75124,2.05052 0.85767,2.2969 5.45135,13.9319 7.10339,17.99167 0.91785,2.25557 1.75213,4.36893 1.85395,4.69635 0.21799,0.70105 0.48474,0.75085 0.95925,0.1791 0.51159,-0.61644 2.28599,-1.47311 4.085,-1.97224 l 1.5875,-0.44046 0.37046,-1.76054 c 0.21616,-1.02724 0.50735,-1.76055 0.69911,-1.76055 0.18681,0 0.52168,0.78774 0.77595,1.82533 l 0.44733,1.82534 1.10434,0.16561 c 2.49648,0.37437 5.72588,2.59658 7.10168,4.8868 0.31528,0.52482 0.59728,0.98902 0.62668,1.03157 0.15742,0.22778 3.12375,-1.34226 3.68965,-1.95287 1.85963,-2.00657 -0.0383,-3.83691 -6.53648,-6.30365 -3.46039,-1.31359 -4.91829,-2.02136 -6.51891,-3.16472 -2.77406,-1.98156 -3.26628,-5.46297 -1.05735,-7.47849 1.3973,-1.27496 4.68123,-2.50365 9.02401,-3.37638 2.35045,-0.47234 3.26789,-0.89093 4.64298,-2.11834 2.16477,-1.93233 3.52635,-2.8027 4.38443,-2.8027 1.05458,0 2.8045,1.1012 4.39716,2.76707 1.2045,1.25987 2.7926,2.26002 3.5886,2.26002 0.23908,0 1.04749,-0.55453 1.79648,-1.23229 2.26098,-2.04594 3.52987,-2.73646 5.02837,-2.73646 1.82769,0 2.98178,0.75231 6.01294,3.91964 2.841088,2.96873 5.009328,4.5058 7.547538,5.35046 3.07393,1.02293 1.2236,1.78665 -1.97117,0.81359 -2.48664,-0.75738 -4.04075,-1.82741 -6.904838,-4.75412 -2.89262,-2.95587 -3.57723,-3.47336 -4.59813,-3.47576 -1.09628,-0.003 -1.60728,0.34673 -4.81125,3.28876 -1.60073,1.46986 -3.50969,3.05306 -4.24213,3.51823 -1.5407,0.97847 -4.18603,1.73076 -5.61573,1.59701 l -0.99006,-0.0926 2.0921,-0.99383 c 2.12875,-1.01123 5.18394,-2.99578 5.18394,-3.3673 0,-0.11256 -0.44648,-0.47621 -0.99218,-0.8081 -0.54571,-0.33189 -1.7661,-1.33916 -2.71198,-2.23838 -0.94589,-0.89922 -1.98173,-1.71508 -2.30188,-1.81303 -0.83064,-0.25412 -1.77017,0.31313 -4.28685,2.5882 -1.21276,1.09633 -3.04578,2.42846 -4.08864,2.97138 -3.61036,1.87958 -3.99861,2.4243 -2.57924,3.61862 0.83427,0.702 2.69361,1.33267 9.91366,3.36262 5.26873,1.48133 7.16916,2.23733 9.69295,3.85591 4.28692,2.74933 5.85213,5.91833 4.63166,9.37751 -1.46411,4.149709 -6.40263,7.226889 -17.61746,10.977349 -3.40807,1.13973 -6.49415,2.27661 -6.85795,2.52641 -1.26266,0.86697 -3.04981,1.67637 -4.36563,1.97721 l -1.32291,0.30246 -0.50063,1.89992 c -0.47389,1.79848 -0.82891,2.31172 -1.08546,1.5692 z m -1.73011,-7.11311 c -0.31074,-1.2174 -0.60829,-2.25691 -0.66124,-2.31002 -0.16095,-0.16147 -3.56319,1.82498 -3.56319,2.08043 0,0.44014 1.8835,1.67996 3.26014,2.146 0.75043,0.25405 1.40151,0.42481 1.44685,0.37947 0.0453,-0.0453 -0.17182,-1.07848 -0.48256,-2.29588 z m 1.86099,-2.27519 v -4.69194 l -0.95643,0.95642 -0.95642,0.95643 0.82413,3.58567 c 0.45328,1.97211 0.82413,3.6531 0.82413,3.73552 0,0.0824 0.0595,0.14985 0.1323,0.14985 0.0728,0 0.13229,-2.11138 0.13229,-4.69195 z m 4.36562,3.67531 c 1.43316,-0.67857 2.49204,-1.5027 2.22052,-1.72825 -0.32931,-0.27356 -3.47212,-2.01761 -3.63577,-2.01761 -0.10795,0 -0.44274,1.01203 -0.74397,2.24895 l -0.54771,2.24896 0.55972,-2.1e-4 c 0.30784,-1.1e-4 1.27409,-0.33844 2.14721,-0.75184 z m 4.6719,-4.67191 c 0.88043,-1.85951 0.99128,-2.88539 0.28904,-2.67517 -0.25466,0.0762 -1.26916,0.33748 -2.25444,0.58054 l -1.79142,0.44193 0.71703,1.22323 c 0.39437,0.67277 0.90039,1.54257 1.12449,1.93287 0.52865,0.92072 0.90885,0.62228 1.9153,-1.5034 z m -14.8888,-0.17803 c 0.46183,-0.82552 0.7469,-1.55549 0.6335,-1.62214 -0.39512,-0.23224 -4.11026,-0.99852 -4.23524,-0.87355 -0.22427,0.22428 0.70587,2.65978 1.41353,3.7012 0.80067,1.17829 0.87867,1.13532 2.18821,-1.20551 z m 19.25914,0.59122 c 13.39104,-4.11232 18.79276,-8.767709 16.04059,-13.824349 -1.6956,-3.11538 -6.06053,-5.30708 -15.69012,-7.87827 -4.90556,-1.30983 -6.70807,-1.99214 -7.80336,-2.95381 -1.14614,-1.00633 -1.49972,-2.0064 -1.07037,-3.02751 0.4039,-0.9606 0.74882,-1.24971 2.84222,-2.38233 1.4413,-0.77981 1.54104,-0.8787 0.73984,-0.73353 -1.54997,0.28084 -5.16404,1.66409 -6.40646,2.45201 -0.67953,0.43094 -1.3608,1.1407 -1.62076,1.68853 -0.41659,0.87789 -0.41787,1.02157 -0.0181,2.02082 0.71168,1.77867 2.88661,3.18114 7.38382,4.76137 6.66394,2.34158 9.30438,4.59561 8.76314,7.48071 -0.18933,1.0092 -1.61948,2.52999 -3.06419,3.25839 -1.21457,0.61236 -5.27472,1.97791 -5.88088,1.97791 -0.26374,0 -0.47925,0.0893 -0.4789,0.19844 2.7e-4,0.10914 1.50373,0.53455 3.34085,0.94535 5.14873,1.151309 5.5484,1.428279 2.94319,2.039589 -1.9996,0.4692 -2.22547,0.64266 -2.41987,1.85837 -0.0961,0.60072 -0.41205,1.55755 -0.70219,2.12628 -0.29014,0.56873 -0.47447,1.03405 -0.40961,1.03405 0.0649,0 1.64486,-0.46891 3.51111,-1.04202 z m 6.01596,-6.976319 c 0.42389,-0.31934 1.25597,-0.94282 1.84907,-1.38552 3.13248,-2.33814 3.01627,-4.73968 -0.33952,-7.01672 -1.38494,-0.93974 -1.65072,-1.3065 -0.94679,-1.3065 1.18393,0 3.80415,1.87499 4.511,3.22801 0.48489,0.92815 0.47684,2.68337 -0.0167,3.63774 -0.56765,1.09772 -2.39953,2.56829 -3.78908,3.04176 -1.72054,0.58625 -2.20848,0.50976 -1.26799,-0.19877 z m -14.56044,6.430839 c -0.69491,-1.05008 -1.68838,-1.44156 -1.68838,-0.66531 0,0.35308 1.68516,1.66948 2.18656,1.70808 0.11121,0.009 -0.11297,-0.46068 -0.49818,-1.04277 z m -8.6513,0.23459 c 0.51853,-0.32047 0.8707,-0.73465 0.82498,-0.97027 -0.15053,-0.77577 -0.66045,-0.60304 -1.36568,0.46264 -0.80523,1.21678 -0.72644,1.29076 0.5407,0.50763 z m 10.79938,-3.30448 c 1.74625,-0.38155 3.2246,-0.73989 3.28524,-0.7963 0.0606,-0.0564 -2.01655,-0.10256 -4.61597,-0.10256 h -4.7262 l 0.89132,0.91962 c 0.61684,0.63642 1.0606,0.88164 1.44097,0.7963 0.3023,-0.0678 1.97839,-0.4355 3.72464,-0.81706 z m -7.80521,-1.37852 c 0,-0.1183 -0.35596,-0.55611 -0.79102,-0.972929 l -0.79102,-0.75784 -3.37617,0.75006 c -1.85689,0.412529 -3.55476,0.846729 -3.77304,0.964879 -0.21828,0.11815 1.65695,0.21844 4.16718,0.22286 2.51024,0.004 4.56407,-0.0887 4.56407,-0.20703 z m 2.23063,-1.353299 c 0.84657,-0.88363 0.84724,-0.8591 -0.14458,-5.37693 -0.34342,-1.56435 -0.69786,-2.84427 -0.78763,-2.84427 -0.0898,0 -0.15076,2.02403 -0.13552,4.49786 0.0152,2.47382 0.0947,4.497879 0.17666,4.497909 0.0819,4e-5 0.4829,-0.348519 0.89107,-0.774569 z m -6.50249,-0.95274 c 0.0516,-0.0505 -0.40793,-1.00063 -1.02112,-2.11146 l -1.11489,-2.01968 -0.67809,0.99789 c -0.69966,1.02965 -1.64529,3.27123 -1.64529,3.90011 0,0.28638 0.43042,0.255 2.18281,-0.15918 1.20055,-0.28375 2.22501,-0.55721 2.27658,-0.60768 z m 2.28748,-0.89331 c 0,-0.20046 -0.44648,-0.64705 -0.99219,-0.99242 -1.15588,-0.73154 -1.19891,-0.66912 -0.39687,0.57581 0.58117,0.90209 1.38906,1.14439 1.38906,0.41661 z m 7.51417,-0.57512 c 0.33122,-0.448 0.5552,-0.86157 0.49774,-0.91903 -0.20479,-0.20479 -2.06958,1.23747 -1.91772,1.48319 0.28705,0.46446 0.81439,0.25495 1.41998,-0.56416 z m 2.81971,-0.27519 c 0.64652,-0.1628 1.1755,-0.35711 1.1755,-0.43179 0,-0.20628 -1.10949,-1.95751 -1.18209,-1.86582 -0.37683,0.47592 -1.47214,2.5936 -1.34147,2.5936 0.0949,0 0.70154,-0.1332 1.34806,-0.29599 z m -9.39591,-3.12818 c 0.28448,-1.19108 0.51724,-2.21759 0.51724,-2.28113 0,-0.51043 -3.11618,0.70646 -4.40483,1.72012 l -0.65716,0.51692 1.14193,0.7063 c 0.62807,0.38846 1.496,0.9239 1.92874,1.18986 0.43274,0.26596 0.82506,0.44531 0.87182,0.39854 0.0468,-0.0468 0.31778,-1.05954 0.60226,-2.25061 z m 6.77772,1.12024 c 0.92236,-0.53956 1.67702,-1.07365 1.67702,-1.18687 0,-0.5293 -3.57867,-2.33003 -4.63056,-2.33003 -0.24636,0 -0.18727,0.57319 0.2317,2.24752 0.30932,1.23613 0.67095,2.24816 0.80361,2.24895 0.13267,8e-4 0.99587,-0.44001 1.91823,-0.97957 z m -9.8793,-14.25263 c -0.91852,-1.30289 -1.56904,-2.76417 -2.58229,-5.80073 -1.6514,-4.94897 -2.25896,-5.62716 -7.04443,-7.86331 -5.78382,-2.70266 -9.82614,-6.20964 -12.11572,-10.51118 -0.63354,-1.19025 -1.08496,-2.23102 -1.00316,-2.31282 0.0818,-0.0818 0.60014,0.0298 1.15188,0.24793 1.11693,0.44164 6.40514,1.63185 6.56044,1.47655 0.14525,-0.14525 -1.20578,-0.99273 -4.61622,-2.89569 -3.73917,-2.08638 -6.03605,-4.25655 -7.54593,-7.12966 -0.56884,-1.08244 -2.03059,-4.40885 -3.24832,-7.39203 -1.21773,-2.98318 -2.27987,-5.57279 -2.3603,-5.75469 -0.23851,-0.53939 0.92237,-0.39492 3.61828,0.45029 1.37014,0.42957 2.53501,0.73718 2.5886,0.68359 0.0536,-0.0536 -1.4305,-1.10592 -3.29797,-2.33849 -1.86748,-1.23258 -3.65038,-2.52246 -3.962,-2.8664 -0.94896,-1.04738 -2.09962,-3.62883 -3.26461,-7.324 -1.37794,-4.37061 -2.74914,-7.13908 -4.51545,-9.116719 -1.17436,-1.314871 -1.316,-1.586441 -1.01598,-1.9479508 1.10503,-1.33148 9.62706,1.6884408 15.02676,5.3249798 2.94203,1.98136 5.59649,4.38214 9.37591,8.4799 5.79001,6.27767 9.95579,12.34911 11.75139,17.12712 0.88525,2.35559 1.64688,6.40434 1.64972,8.7697 7.9e-4,0.71547 0.061,1.24146 0.13357,1.16886 0.0726,-0.0726 0.40002,-1.07472 0.7276,-2.22692 0.40401,-1.42103 0.72325,-2.09489 0.99247,-2.09489 0.49469,0 1.11536,1.81798 1.86643,5.46687 0.48105,2.3371 0.54467,3.35137 0.43709,6.96854 -0.0885,2.9746 -0.26603,4.70536 -0.59714,5.82083 -0.56008,1.88683 -0.60104,1.95009 -0.93708,1.44755 -0.16317,-0.24401 -0.19575,-2.21532 -0.0873,-5.284 0.16312,-4.61736 -0.10503,-8.38938 -0.67377,-9.47779 -0.10749,-0.20571 -0.48852,0.5904 -0.9255,1.93373 -0.75145,2.31007 -1.512,3.61339 -1.88923,3.23749 -0.11344,-0.11304 -0.29984,-1.95851 -0.41424,-4.10104 -0.36475,-6.83189 -0.98567,-9.60434 -3.04987,-13.61785 -1.33493,-2.59556 -4.36414,-7.25838 -5.63003,-8.66621 -0.77794,-0.86518 -0.82374,-0.88257 -0.69678,-0.26458 0.52525,2.55659 0.38617,6.66232 -0.20563,6.07052 -0.0725,-0.0725 -0.49563,-1.49782 -0.94023,-3.16733 -0.44461,-1.66952 -1.23719,-4.13969 -1.76129,-5.48928 -0.8322,-2.14297 -1.20756,-2.72449 -2.96326,-4.59082 -3.63066,-3.85941 -8.89318,-7.54094 -13.48039,-9.43055 -1.41893,-0.584499 -2.98442,-1.148389 -3.47886,-1.253079 l -0.899,-0.19035 0.53475,0.75722 c 1.07027,1.515489 2.1536,4.011739 3.33639,7.687819 1.98129,6.15779 2.42386,6.83161 6.15514,9.37146 3.18922,2.17086 5.65586,4.48665 6.46197,6.06675 0.30811,0.60395 0.50604,1.15224 0.43985,1.21843 -0.0662,0.0662 -1.53302,-0.46696 -3.25961,-1.18479 -1.72658,-0.71783 -3.45817,-1.37898 -3.84796,-1.46921 l -0.70872,-0.16406 0.89128,2.05082 c 0.4902,1.12795 1.41683,3.3779 2.05917,4.99987 2.16107,5.45694 3.76059,7.26889 9.28934,10.523 1.32375,0.77913 3.16088,1.98351 4.08252,2.67639 1.77522,1.33461 3.20814,3.15479 2.79829,3.55455 -0.14069,0.13723 -1.44971,-0.077 -3.15108,-0.51576 -1.60073,-0.41278 -3.50495,-0.83874 -4.2316,-0.94659 l -1.32117,-0.19608 1.03422,1.29647 c 1.59712,2.0021 2.81366,3.23481 4.21023,4.26621 1.46919,1.08502 9.17186,5.13309 9.17186,4.82019 0,-0.32686 -2.69268,-6.89645 -4.43996,-10.83264 -5.18626,-11.68327 -11.08054,-22.34324 -17.62303,-31.87173 -1.09512,-1.59492 -1.94755,-2.94342 -1.8943,-2.99667 0.2465,-0.24651 3.73467,3.95033 6.00039,7.21945 7.66789,11.06367 15.15815,25.83205 20.59849,40.61354 3.10246,8.42945 4.38959,13.83561 2.73542,11.48927 z m 6.00007,-7.28606 c 0,-0.30761 0.22626,-0.99222 0.50279,-1.52136 0.34631,-0.66265 0.58842,-1.96833 0.77792,-4.19539 0.17901,-2.10386 0.4525,-3.62887 0.7829,-4.36563 0.27928,-0.62276 2.8553,-4.44706 5.7245,-8.49845 2.8692,-4.05139 5.1779,-7.38984 5.13045,-7.41879 -0.0475,-0.0289 -0.74111,-0.33836 -1.54148,-0.68761 -1.77207,-0.77326 -2.50965,-1.40598 -2.29402,-1.96791 0.23987,-0.62509 1.06753,-0.51141 2.85831,0.39257 0.88414,0.44631 1.75296,0.75567 1.93071,0.68746 0.17776,-0.0682 1.95129,-2.41948 3.94118,-5.22504 2.74786,-3.87422 3.61834,-5.29629 3.61947,-5.91297 0.006,-3.25381 2.2986,-5.95772 5.56705,-6.56555 1.50235,-0.27939 1.56314,-0.3237 2.05873,-1.50049 0.28087,-0.66693 0.66028,-1.68884 0.84313,-2.27093 0.9184,-2.92351 2.03034,-3.90213 3.77827,-3.32527 1.29587,0.42768 2.14863,1.43209 2.11849,2.49524 -0.0149,0.526 -0.61133,1.95584 -1.49095,3.57433 l -1.4661,2.69761 0.84339,1.35673 c 0.75685,1.21751 0.84285,1.56274 0.83813,3.36446 -0.006,2.23191 -0.3878,3.22472 -1.84126,4.78586 l -0.86217,0.92604 -0.84868,6.57232 c -0.46678,3.61478 -0.80407,6.61694 -0.74954,6.67147 0.0545,0.0545 1.01612,0.51702 2.13688,1.02777 1.53052,0.69748 2.03773,1.05756 2.03773,1.44664 0,0.87524 -0.90586,0.89266 -2.75762,0.053 l -1.73872,-0.78837 -0.12119,0.57836 c -0.0667,0.3181 -0.48982,3.43587 -0.94036,6.92836 l -0.81917,6.35 -0.92306,0.92605 -0.92307,0.92604 0.14347,-1.05834 c 0.0789,-0.58208 0.38667,-3.02286 0.68394,-5.42395 0.29727,-2.4011 1.00563,-7.76507 1.57414,-11.91993 1.02723,-7.50733 1.43509,-10.90991 1.35332,-11.29004 -0.0414,-0.19242 -1.64377,-0.12521 -1.85318,0.0777 -0.15446,0.14968 -0.92017,5.7646 -2.55809,18.75819 -0.80654,6.3983 -1.50502,11.67184 -1.55217,11.71899 -0.0472,0.0472 -0.37801,-0.26164 -0.73526,-0.6862 l -0.64953,-0.77193 0.61929,-5.12622 c 0.34061,-2.81943 0.83516,-6.75621 1.09901,-8.74841 l 0.47971,-3.62218 -1.31765,-0.5476 c -0.72471,-0.30117 -1.3467,-0.51666 -1.38218,-0.47885 -0.0355,0.0378 -0.34552,0.66404 -0.68894,1.39165 -0.43773,0.9274 -0.8019,1.34824 -1.21806,1.40762 -0.87565,0.12493 -0.99642,-0.57094 -0.35703,-2.05724 0.30772,-0.71531 0.55949,-1.37202 0.55949,-1.45936 0,-0.28633 -2.46646,-1.22326 -2.62423,-0.99686 -0.0846,0.12146 -0.56463,0.81043 -1.06664,1.53105 -10.3544,14.86323 -15.49726,21.97485 -16.04277,22.18419 -0.60917,0.23375 -0.63928,0.21496 -0.63928,-0.3989 z m 8.7578,-13.46363 c 2.49551,-3.56526 5.93209,-8.44682 7.63684,-10.84792 1.70476,-2.40109 3.95958,-5.58074 5.01071,-7.06589 l 1.91115,-2.70026 -0.59551,-0.80547 c -0.32753,-0.443 -0.66241,-0.79874 -0.74418,-0.79054 -0.0818,0.008 -1.95675,2.59782 -4.1666,5.75469 -2.20985,3.15687 -6.21501,8.86448 -8.90036,12.68358 -2.68534,3.8191 -5.06858,7.40901 -5.29608,7.97758 -0.22749,0.56858 -0.48429,1.67058 -0.57066,2.4489 l -0.15704,1.41512 0.66722,-0.79375 c 0.36697,-0.43656 2.709,-3.71078 5.20451,-7.27604 z m 16.86515,-13.5599 c 0.8651,-6.8898 0.80226,-6.66692 1.90306,-6.74948 1.95906,-0.14694 2.68145,-0.38376 3.58171,-1.1742 1.25879,-1.10523 1.77195,-2.18592 1.79363,-3.77726 0.0559,-4.10711 -4.87067,-6.46606 -7.9174,-3.791 -1.28723,1.13021 -1.70062,2.05108 -1.70062,3.78839 0,1.66803 0.2393,2.26806 1.38938,3.48374 l 0.79672,0.84216 -0.49774,0.80395 c -0.27375,0.44217 -1.72834,2.54336 -3.23243,4.66932 -1.50408,2.12596 -2.6947,3.90014 -2.64583,3.94264 0.18583,0.16157 1.78946,0.93831 1.93721,0.93831 0.0852,0 0.38449,-0.53578 0.66519,-1.19063 0.40665,-0.94867 0.64221,-1.19062 1.15918,-1.19062 0.88568,0 0.97084,0.43588 0.38147,1.95262 -0.27594,0.71015 -0.46758,1.30932 -0.42586,1.33149 0.43822,0.23293 1.95989,0.91927 2.06698,0.9323 0.0765,0.009 0.41189,-2.15597 0.74535,-4.81173 z m 0.77074,-9.12939 c -0.98398,-0.6101 -1.61529,-2.00273 -1.40823,-3.10647 0.64385,-3.43204 5.47307,-3.45241 6.11591,-0.0258 0.47573,2.53586 -2.48859,4.50817 -4.70768,3.13226 z m 2.82387,-1.53898 c 0.61713,-0.61714 0.52605,-1.85823 -0.17226,-2.34735 -1.18804,-0.83213 -2.58697,-0.18445 -2.58697,1.19773 0,0.94368 0.6305,1.56539 1.5875,1.56539 0.41578,0 0.94306,-0.1871 1.17173,-0.41577 z m 3.56726,-9.04308 c 1.39428,-2.54598 1.62303,-3.60367 0.86689,-4.00834 -0.29725,-0.15908 -0.72263,-0.21934 -0.94529,-0.1339 -0.22265,0.0854 -0.8813,1.36494 -1.46366,2.84332 -0.96564,2.45138 -1.0204,2.71709 -0.6221,3.01871 0.76302,0.57782 1.01599,0.3768 2.16416,-1.71979 z m 2.95927,-9.72344 c 0.27218,-1.30969 0.56298,-2.66627 0.64624,-3.01463 0.14967,-0.626319 0.13349,-0.631769 -1.45073,-0.488119 -0.88116,0.0799 -1.6021,0.099 -1.6021,0.0425 0,-0.0565 0.62455,-0.419214 1.38788,-0.806024 l 1.38789,-0.7033 -2.24778,-2.0773702 c -1.23628,-1.14256 -2.12032,-2.07823 -1.96453,-2.07929 0.15578,-0.001 1.39754,0.23621 2.75946,0.52726 1.36191,0.29104 2.51437,0.52916 2.56102,0.52916 0.0466,0 0.0904,-0.74414 0.0971,-1.65364 l 0.0123,-1.65365 0.64496,1.23858 c 0.354733,0.68121 0.738403,1.29631 0.852593,1.36689 0.1142,0.0706 1.038815,-0.80125 2.054705,-1.9374 1.01589,-1.13615 1.88601,-1.96185 1.9336,-1.8349 0.0476,0.12695 -0.10123,1.13876 -0.33073,2.24848 -0.22949,1.10971 -0.41726,2.30362 -0.41726,2.65313 0,0.61496 0.0491,0.63053 1.52135,0.4825 l 1.52136,-0.15298 -1.25677,0.7243202 c -0.69123,0.398379 -1.25677,0.811 -1.25677,0.91693 0,0.10593 0.96238,1.09794 2.13862,2.204454 1.17624,1.10652 2.09898,2.0103 2.05052,2.00838 -0.0485,-0.002 -1.21919,-0.23847 -2.60164,-0.52569 -3.66183,-0.76078 -3.51186,-0.80292 -3.29585,0.92605 0.1,0.80036 0.11988,1.4552 0.0442,1.4552 -0.0757,0 -0.46129,-0.55228 -0.85688,-1.2273 l -0.71925,-1.2273 -2.054208,2.21949 -2.0542,2.21949 z m 4.640588,-3.955749 c 0.41692,0.0939 1.14499,0.26856 1.61793,0.38822 0.47295,0.119669 0.8599,0.174199 0.8599,0.121169 0,-0.053 -0.55496,-0.620759 -1.23325,-1.261629 l -1.23326,-1.16521 0.40996,-1.6274608 c 0.22548,-0.8951 0.36618,-1.62746 0.31266,-1.62746 -0.0535,0 -0.60211,0.54765 -1.2191,1.21701 -1.102895,1.19649 -1.143195,1.21418 -2.389928,1.0488 -0.69747,-0.0925 -1.47503,-0.23933 -1.72792,-0.32623 -0.25289,-0.0869 0.11754,0.40909 0.82318,1.1021998 1.1046,1.085001 1.26094,1.365801 1.12448,2.019631 -0.0872,0.41768 -0.23221,1.146369 -0.3223,1.619309 l -0.1638,0.8599 1.191703,-1.26945 c 1.039195,-1.106989 1.288715,-1.247609 1.949745,-1.098799 z"
       id="path1" />
  </g>
</svg>
